<?xml version="1.0" encoding="utf-8"?>
<svg viewBox="0 0 500 500" xmlns="http://www.w3.org/2000/svg" xmlns:bx="https://boxy-svg.com">
  <g transform="matrix(1.25966, 0, 0, 1.25966, -24.384653, -35.918259)" style="" id="Head-front">
    <ellipse style="fill: rgb(216, 216, 216); stroke: rgb(0, 0, 0);" cx="114.791" cy="99.273" rx="39.055" ry="39.055">
      <title>Head-front</title>
    </ellipse>
    <g transform="matrix(1, 0, 0, 1, -0.873497, -1.044817)">
      <ellipse style="fill: rgb(216, 216, 216); stroke: rgb(0, 0, 0);" cx="99.685" cy="97.287" rx="6.31" ry="6.447">
        <title>Left eye</title>
      </ellipse>
      <ellipse style="fill: rgb(216, 216, 216); stroke: rgb(0, 0, 0);" cx="131.644" cy="97.287" rx="6.31" ry="6.447">
        <title>Right eye</title>
      </ellipse>
    </g>
  </g>
  <rect x="76.28" y="206.241" width="88.965" height="111.685" style="fill: rgb(216, 216, 216); stroke: rgb(0, 0, 0);">
    <title>Waist-front</title>
  </rect>
  <g transform="matrix(1, 0, 0, 1, -3.296853, 0)">
    <title>Arms-front</title>
    <rect x="20.753" y="147.834" width="41.144" height="129.25" style="fill: rgb(216, 216, 216); stroke: rgb(0, 0, 0);"/>
    <rect x="182.49" y="147.834" width="41.144" height="129.25" style="fill: rgb(216, 216, 216); stroke: rgb(0, 0, 0);"/>
  </g>
  <g transform="matrix(1, 0, 0, 1, 2.154645, 0)">
    <title>Legs-front</title>
    <rect x="63.162" y="325.998" width="47.823" height="129.006" style="fill: rgb(216, 216, 216); stroke: rgb(0, 0, 0);"/>
    <rect x="122.499" y="325.998" width="47.823" height="129.006" style="fill: rgb(216, 216, 216); stroke: rgb(0, 0, 0);"/>
  </g>
  <ellipse style="fill: rgb(216, 216, 216); stroke: rgb(0, 0, 0);" cx="351.952" cy="90.339" rx="49.196" ry="49.196">
    <title>Head-back</title>
  </ellipse>
  <g transform="matrix(1, 0, 0, 1, 229.758484, 1.206952)">
    <title>Arms-back</title>
    <rect x="20.753" y="147.834" width="41.144" height="129.25" style="fill: rgb(216, 216, 216); stroke: rgb(0, 0, 0);"/>
    <rect x="182.49" y="147.834" width="41.144" height="129.25" style="fill: rgb(216, 216, 216); stroke: rgb(0, 0, 0);"/>
  </g>
  <g transform="matrix(1, 0, 0, 1, 235.209991, 1.206952)">
    <title>Legs-back</title>
    <rect x="63.162" y="325.998" width="47.823" height="129.006" style="fill: rgb(216, 216, 216); stroke: rgb(0, 0, 0);"/>
    <rect x="122.499" y="325.998" width="47.823" height="129.006" style="fill: rgb(216, 216, 216); stroke: rgb(0, 0, 0);"/>
  </g>
  <path d="M 120.54 -239.944 L 174.403 -204.644 L 153.829 -147.527 L 87.251 -147.527 L 66.677 -204.644 Z" style="fill: rgb(216, 216, 216); stroke: rgb(0, 0, 0);" transform="matrix(1, 0, 0, -1, -1.6433551357611975, 1.4490927075721736)" bx:shape="n-gon 120.54 -188.857 56.635 51.087 5 0 1@690534b4">
    <title>Chest-front</title>
  </path>
  <path d="M 297.541 207.058 L 318.115 149.941 L 384.693 149.941 L 405.267 207.058 L 397.753 211.982 L 397.753 318.891 L 308.788 318.891 L 308.788 214.429 L 297.541 207.058 Z" style="fill: rgb(216, 216, 216); stroke: rgb(0, 0, 0);"/>
<path d="M 297.541 207.058 L 318.115 149.941 L 384.693 149.941 L 405.267 207.058 L 397.753 211.982 L 397.753 318.891 L 308.788 318.891 L 308.788 214.429 L 297.541 207.058 Z" style="fill: rgb(216, 216, 216); stroke: rgb(0, 0, 0);">
    <title>Back</title>
  </path>
</svg>